<svg xmlns="http://www.w3.org/2000/svg" width="444.63" height="35" viewBox="0 0 444.63 35"><rect class="svg__rect" x="0" y="0" width="115.31" height="35" fill="#E46C17"/><rect class="svg__rect" x="113.31" y="0" width="331.32" height="35" fill="#389AD5"/><path class="svg__text" d="M15.69 22L14.22 22L14.22 13.47L16.14 13.47L18.60 20.01L21.06 13.47L22.97 13.47L22.97 22L21.49 22L21.49 19.19L21.64 15.43L19.12 22L18.06 22L15.55 15.43L15.69 19.19L15.69 22ZM28.49 22L26.95 22L30.17 13.47L31.50 13.47L34.73 22L33.18 22L32.49 20.01L29.18 20.01L28.49 22ZM30.83 15.28L29.60 18.82L32.07 18.82L30.83 15.28ZM41.14 22L38.69 22L38.69 13.47L41.21 13.47Q42.34 13.47 43.21 13.97Q44.09 14.48 44.57 15.40Q45.05 16.33 45.05 17.52L45.05 17.52L45.05 17.95Q45.05 19.16 44.57 20.08Q44.08 21.00 43.19 21.50Q42.30 22 41.14 22L41.14 22ZM40.17 14.66L40.17 20.82L41.14 20.82Q42.30 20.82 42.93 20.09Q43.55 19.36 43.56 17.99L43.56 17.99L43.56 17.52Q43.56 16.13 42.96 15.40Q42.35 14.66 41.21 14.66L41.21 14.66L40.17 14.66ZM55.09 22L49.51 22L49.51 13.47L55.05 13.47L55.05 14.66L51.00 14.66L51.00 17.02L54.50 17.02L54.50 18.19L51.00 18.19L51.00 20.82L55.09 20.82L55.09 22ZM66.65 22L64.68 13.47L66.15 13.47L67.47 19.88L69.10 13.47L70.34 13.47L71.96 19.89L73.27 13.47L74.74 13.47L72.77 22L71.35 22L69.73 15.77L68.07 22L66.65 22ZM80.38 22L78.90 22L78.90 13.47L80.38 13.47L80.38 22ZM86.87 14.66L84.23 14.66L84.23 13.47L91.00 13.47L91.00 14.66L88.34 14.66L88.34 22L86.87 22L86.87 14.66ZM96.24 22L94.75 22L94.75 13.47L96.24 13.47L96.24 17.02L100.05 17.02L100.05 13.47L101.53 13.47L101.53 22L100.05 22L100.05 18.21L96.24 18.21L96.24 22Z" fill="#FFFFFF"/><path class="svg__text" d="M131.47 22L127.50 22L127.50 13.60L131.47 13.60Q132.85 13.60 133.92 14.12Q134.99 14.63 135.58 15.58Q136.16 16.53 136.16 17.80L136.16 17.80Q136.16 19.07 135.58 20.02Q134.99 20.97 133.92 21.48Q132.85 22 131.47 22L131.47 22ZM129.88 15.50L129.88 20.10L131.38 20.10Q132.45 20.10 133.11 19.49Q133.76 18.88 133.76 17.80L133.76 17.80Q133.76 16.72 133.11 16.11Q132.45 15.50 131.38 15.50L131.38 15.50L129.88 15.50ZM142.31 22L139.88 22L143.59 13.60L145.94 13.60L149.65 22L147.19 22L146.52 20.37L142.97 20.37L142.31 22ZM144.75 15.93L143.66 18.61L145.83 18.61L144.75 15.93ZM153.22 21.24L153.22 21.24L154.00 19.49Q154.56 19.86 155.31 20.09Q156.05 20.32 156.77 20.32L156.77 20.32Q158.14 20.32 158.14 19.64L158.14 19.64Q158.14 19.28 157.75 19.11Q157.36 18.93 156.50 18.74L156.50 18.74Q155.55 18.53 154.91 18.30Q154.28 18.06 153.82 17.55Q153.37 17.03 153.37 16.16L153.37 16.16Q153.37 15.39 153.79 14.77Q154.20 14.15 155.04 13.79Q155.87 13.43 157.08 13.43L157.08 13.43Q157.91 13.43 158.71 13.62Q159.52 13.80 160.13 14.17L160.13 14.17L159.40 15.93Q158.20 15.28 157.07 15.28L157.07 15.28Q156.36 15.28 156.04 15.49Q155.72 15.70 155.72 16.04L155.72 16.04Q155.72 16.37 156.10 16.54Q156.48 16.71 157.33 16.89L157.33 16.89Q158.29 17.10 158.92 17.33Q159.55 17.56 160.02 18.07Q160.48 18.58 160.48 19.46L160.48 19.46Q160.48 20.21 160.06 20.83Q159.64 21.44 158.80 21.80Q157.96 22.17 156.76 22.17L156.76 22.17Q155.74 22.17 154.78 21.92Q153.82 21.67 153.22 21.24ZM167.44 22L165.06 22L165.06 13.60L167.44 13.60L167.44 16.76L170.68 16.76L170.68 13.60L173.05 13.60L173.05 22L170.68 22L170.68 18.72L167.44 18.72L167.44 22ZM181.45 19.46L177.95 19.46L177.95 17.71L181.45 17.71L181.45 19.46ZM185.92 17.80L185.92 17.80Q185.92 16.54 186.52 15.54Q187.12 14.55 188.17 13.99Q189.22 13.43 190.54 13.43L190.54 13.43Q191.69 13.43 192.62 13.84Q193.54 14.25 194.15 15.02L194.15 15.02L192.64 16.39Q191.83 15.40 190.66 15.40L190.66 15.40Q189.98 15.40 189.44 15.70Q188.91 16 188.61 16.54Q188.32 17.09 188.32 17.80L188.32 17.80Q188.32 18.51 188.61 19.05Q188.91 19.60 189.44 19.90Q189.98 20.20 190.66 20.20L190.66 20.20Q191.83 20.20 192.64 19.22L192.64 19.22L194.15 20.58Q193.54 21.35 192.62 21.76Q191.69 22.17 190.54 22.17L190.54 22.17Q189.22 22.17 188.17 21.61Q187.12 21.05 186.52 20.05Q185.92 19.06 185.92 17.80ZM198.26 17.80L198.26 17.80Q198.26 16.55 198.87 15.55Q199.47 14.56 200.53 14.00Q201.60 13.43 202.93 13.43L202.93 13.43Q204.26 13.43 205.32 14.00Q206.38 14.56 206.99 15.55Q207.60 16.55 207.60 17.80L207.60 17.80Q207.60 19.05 206.99 20.04Q206.38 21.04 205.32 21.60Q204.26 22.17 202.93 22.17L202.93 22.17Q201.60 22.17 200.53 21.60Q199.47 21.04 198.87 20.04Q198.26 19.05 198.26 17.80ZM200.66 17.80L200.66 17.80Q200.66 18.51 200.96 19.05Q201.26 19.60 201.78 19.90Q202.29 20.20 202.93 20.20L202.93 20.20Q203.56 20.20 204.08 19.90Q204.60 19.60 204.89 19.05Q205.19 18.51 205.19 17.80L205.19 17.80Q205.19 17.09 204.89 16.54Q204.60 16 204.08 15.70Q203.56 15.40 202.93 15.40L202.93 15.40Q202.29 15.40 201.77 15.70Q201.26 16 200.96 16.54Q200.66 17.09 200.66 17.80ZM214.52 22L212.32 22L212.32 13.60L214.28 13.60L217.23 18.45L220.12 13.60L222.07 13.60L222.09 22L219.91 22L219.89 17.55L217.73 21.17L216.67 21.17L214.52 17.67L214.52 22ZM229.63 22L227.25 22L227.25 13.60L231.10 13.60Q232.23 13.60 233.08 13.98Q233.92 14.35 234.37 15.06Q234.83 15.76 234.83 16.71L234.83 16.71Q234.83 17.66 234.37 18.35Q233.92 19.05 233.08 19.42Q232.23 19.80 231.10 19.80L231.10 19.80L229.63 19.80L229.63 22ZM229.63 15.47L229.63 17.93L230.95 17.93Q231.68 17.93 232.06 17.61Q232.43 17.29 232.43 16.71L232.43 16.71Q232.43 16.12 232.06 15.80Q231.68 15.47 230.95 15.47L230.95 15.47L229.63 15.47ZM239.15 17.80L239.15 17.80Q239.15 16.55 239.76 15.55Q240.36 14.56 241.42 14.00Q242.49 13.43 243.82 13.43L243.82 13.43Q245.15 13.43 246.21 14.00Q247.28 14.56 247.88 15.55Q248.49 16.55 248.49 17.80L248.49 17.80Q248.49 19.05 247.88 20.04Q247.28 21.04 246.21 21.60Q245.15 22.17 243.82 22.17L243.82 22.17Q242.49 22.17 241.42 21.60Q240.36 21.04 239.76 20.04Q239.15 19.05 239.15 17.80ZM241.55 17.80L241.55 17.80Q241.55 18.51 241.85 19.05Q242.15 19.60 242.67 19.90Q243.19 20.20 243.82 20.20L243.82 20.20Q244.46 20.20 244.97 19.90Q245.49 19.60 245.79 19.05Q246.09 18.51 246.09 17.80L246.09 17.80Q246.09 17.09 245.79 16.54Q245.49 16 244.97 15.70Q244.46 15.40 243.82 15.40L243.82 15.40Q243.18 15.40 242.67 15.70Q242.15 16 241.85 16.54Q241.55 17.09 241.55 17.80ZM255.55 22L253.22 22L253.22 13.60L255.17 13.60L258.88 18.07L258.88 13.60L261.21 13.60L261.21 22L259.26 22L255.55 17.52L255.55 22ZM273.12 22L266.37 22L266.37 13.60L272.96 13.60L272.96 15.44L268.73 15.44L268.73 16.85L272.46 16.85L272.46 18.63L268.73 18.63L268.73 20.17L273.12 20.17L273.12 22ZM280.25 22L277.92 22L277.92 13.60L279.88 13.60L283.59 18.07L283.59 13.60L285.91 13.60L285.91 22L283.96 22L280.25 17.52L280.25 22ZM292.87 15.48L290.28 15.48L290.28 13.60L297.81 13.60L297.81 15.48L295.24 15.48L295.24 22L292.87 22L292.87 15.48ZM305.42 19.46L301.91 19.46L301.91 17.71L305.42 17.71L305.42 19.46ZM314.86 22L310.32 22L310.32 13.60L314.62 13.60Q316.22 13.60 317.06 14.19Q317.90 14.79 317.90 15.79L317.90 15.79Q317.90 16.39 317.61 16.87Q317.31 17.34 316.77 17.62L316.77 17.62Q317.49 17.87 317.90 18.41Q318.31 18.94 318.31 19.70L318.31 19.70Q318.31 20.80 317.42 21.40Q316.53 22 314.86 22L314.86 22ZM312.67 18.58L312.67 20.28L314.66 20.28Q315.91 20.28 315.91 19.43L315.91 19.43Q315.91 18.58 314.66 18.58L314.66 18.58L312.67 18.58ZM312.67 15.31L312.67 16.94L314.30 16.94Q315.50 16.94 315.50 16.12L315.50 16.12Q315.50 15.31 314.30 15.31L314.30 15.31L312.67 15.31ZM322.60 17.80L322.60 17.80Q322.60 16.55 323.20 15.55Q323.80 14.56 324.87 14.00Q325.93 13.43 327.26 13.43L327.26 13.43Q328.59 13.43 329.66 14.00Q330.72 14.56 331.33 15.55Q331.93 16.55 331.93 17.80L331.93 17.80Q331.93 19.05 331.33 20.04Q330.72 21.04 329.66 21.60Q328.60 22.17 327.26 22.17L327.26 22.17Q325.93 22.17 324.87 21.60Q323.80 21.04 323.20 20.04Q322.60 19.05 322.60 17.80ZM324.99 17.80L324.99 17.80Q324.99 18.51 325.30 19.05Q325.60 19.60 326.11 19.90Q326.63 20.20 327.26 20.20L327.26 20.20Q327.90 20.20 328.42 19.90Q328.93 19.60 329.23 19.05Q329.53 18.51 329.53 17.80L329.53 17.80Q329.53 17.09 329.23 16.54Q328.93 16 328.42 15.70Q327.90 15.40 327.26 15.40L327.26 15.40Q326.62 15.40 326.11 15.70Q325.60 16 325.30 16.54Q324.99 17.09 324.99 17.80ZM339.04 22L336.66 22L336.66 13.60L339.04 13.60L339.04 22ZM350.60 22L344.21 22L344.21 13.60L346.59 13.60L346.59 20.11L350.60 20.11L350.60 22ZM361.76 22L355.02 22L355.02 13.60L361.61 13.60L361.61 15.44L357.37 15.44L357.37 16.85L361.11 16.85L361.11 18.63L357.37 18.63L357.37 20.17L361.76 20.17L361.76 22ZM368.95 22L366.57 22L366.57 13.60L370.41 13.60Q371.55 13.60 372.39 13.98Q373.23 14.35 373.69 15.06Q374.14 15.76 374.14 16.71L374.14 16.71Q374.14 17.62 373.71 18.30Q373.29 18.98 372.50 19.36L372.50 19.36L374.31 22L371.76 22L370.24 19.77L368.95 19.77L368.95 22ZM368.95 15.47L368.95 17.93L370.26 17.93Q371.00 17.93 371.37 17.61Q371.74 17.29 371.74 16.71L371.74 16.71Q371.74 16.12 371.37 15.79Q371.00 15.47 370.26 15.47L370.26 15.47L368.95 15.47ZM381.31 22L378.93 22L378.93 13.60L382.77 13.60Q383.91 13.60 384.75 13.98Q385.59 14.35 386.05 15.06Q386.51 15.76 386.51 16.71L386.51 16.71Q386.51 17.66 386.05 18.35Q385.59 19.05 384.75 19.42Q383.91 19.80 382.77 19.80L382.77 19.80L381.31 19.80L381.31 22ZM381.31 15.47L381.31 17.93L382.63 17.93Q383.36 17.93 383.73 17.61Q384.10 17.29 384.10 16.71L384.10 16.71Q384.10 16.12 383.73 15.80Q383.36 15.47 382.63 15.47L382.63 15.47L381.31 15.47ZM397.64 22L391.26 22L391.26 13.60L393.64 13.60L393.64 20.11L397.64 20.11L397.64 22ZM403.48 22L401.05 22L404.76 13.60L407.11 13.60L410.82 22L408.36 22L407.69 20.37L404.14 20.37L403.48 22ZM405.92 15.93L404.83 18.61L407.00 18.61L405.92 15.93ZM416.77 15.48L414.19 15.48L414.19 13.60L421.71 13.60L421.71 15.48L419.14 15.48L419.14 22L416.77 22L416.77 15.48ZM432.82 22L426.08 22L426.08 13.60L432.67 13.60L432.67 15.44L428.44 15.44L428.44 16.85L432.17 16.85L432.17 18.63L428.44 18.63L428.44 20.17L432.82 20.17L432.82 22Z" fill="#FFFFFF" x="126.31"/></svg>